<mxfile host="app.diagrams.net" agent="Mozilla/5.0 (Windows NT 10.0; Win64; x64) AppleWebKit/537.36 (KHTML, like Gecko) Chrome/129.0.0.0 Safari/537.36" version="24.8.0">
  <diagram name="Component Diagram" id="0">
    <mxGraphModel dx="2501" dy="738" grid="1" gridSize="10" guides="1" tooltips="1" connect="1" arrows="1" fold="1" page="1" pageScale="1" pageWidth="827" pageHeight="1169" math="0" shadow="0">
      <root>
        <mxCell id="0" />
        <mxCell id="1" parent="0" />
        <mxCell id="s4dvAF2hhasnWOjqTfLs-1" value="«component»&lt;br&gt;&lt;b&gt;GUI&lt;/b&gt;" style="html=1;dropTarget=0;whiteSpace=wrap;" parent="1" vertex="1">
          <mxGeometry x="-90" y="260" width="180" height="90" as="geometry" />
        </mxCell>
        <mxCell id="s4dvAF2hhasnWOjqTfLs-2" value="" style="shape=module;jettyWidth=8;jettyHeight=4;" parent="s4dvAF2hhasnWOjqTfLs-1" vertex="1">
          <mxGeometry x="1" width="20" height="20" relative="1" as="geometry">
            <mxPoint x="-27" y="7" as="offset" />
          </mxGeometry>
        </mxCell>
        <mxCell id="s4dvAF2hhasnWOjqTfLs-3" value="«component»&lt;br&gt;&lt;div&gt;&lt;b&gt;User Management&lt;/b&gt;&lt;/div&gt;" style="html=1;dropTarget=0;whiteSpace=wrap;" parent="1" vertex="1">
          <mxGeometry x="290" y="70" width="180" height="90" as="geometry" />
        </mxCell>
        <mxCell id="s4dvAF2hhasnWOjqTfLs-4" value="" style="shape=module;jettyWidth=8;jettyHeight=4;" parent="s4dvAF2hhasnWOjqTfLs-3" vertex="1">
          <mxGeometry x="1" width="20" height="20" relative="1" as="geometry">
            <mxPoint x="-27" y="7" as="offset" />
          </mxGeometry>
        </mxCell>
        <mxCell id="s4dvAF2hhasnWOjqTfLs-5" value="«component»&lt;br&gt;&lt;b&gt;Patient Management&lt;/b&gt;" style="html=1;dropTarget=0;whiteSpace=wrap;" parent="1" vertex="1">
          <mxGeometry x="290" y="210" width="180" height="90" as="geometry" />
        </mxCell>
        <mxCell id="s4dvAF2hhasnWOjqTfLs-6" value="" style="shape=module;jettyWidth=8;jettyHeight=4;" parent="s4dvAF2hhasnWOjqTfLs-5" vertex="1">
          <mxGeometry x="1" width="20" height="20" relative="1" as="geometry">
            <mxPoint x="-27" y="7" as="offset" />
          </mxGeometry>
        </mxCell>
        <mxCell id="s4dvAF2hhasnWOjqTfLs-7" value="«component»&lt;br&gt;&lt;b&gt;Triage&amp;nbsp;&lt;/b&gt;" style="html=1;dropTarget=0;whiteSpace=wrap;" parent="1" vertex="1">
          <mxGeometry x="740" y="70" width="180" height="90" as="geometry" />
        </mxCell>
        <mxCell id="s4dvAF2hhasnWOjqTfLs-8" value="" style="shape=module;jettyWidth=8;jettyHeight=4;" parent="s4dvAF2hhasnWOjqTfLs-7" vertex="1">
          <mxGeometry x="1" width="20" height="20" relative="1" as="geometry">
            <mxPoint x="-27" y="7" as="offset" />
          </mxGeometry>
        </mxCell>
        <mxCell id="s4dvAF2hhasnWOjqTfLs-9" value="«component»&lt;br&gt;&lt;b&gt;Medical Records&lt;/b&gt;" style="html=1;dropTarget=0;whiteSpace=wrap;" parent="1" vertex="1">
          <mxGeometry x="750" y="200" width="180" height="90" as="geometry" />
        </mxCell>
        <mxCell id="s4dvAF2hhasnWOjqTfLs-10" value="" style="shape=module;jettyWidth=8;jettyHeight=4;" parent="s4dvAF2hhasnWOjqTfLs-9" vertex="1">
          <mxGeometry x="1" width="20" height="20" relative="1" as="geometry">
            <mxPoint x="-27" y="7" as="offset" />
          </mxGeometry>
        </mxCell>
        <mxCell id="s4dvAF2hhasnWOjqTfLs-11" value="«component»&lt;br&gt;&lt;b&gt;Appointment Management&lt;/b&gt;" style="html=1;dropTarget=0;whiteSpace=wrap;" parent="1" vertex="1">
          <mxGeometry x="300" y="330" width="180" height="90" as="geometry" />
        </mxCell>
        <mxCell id="s4dvAF2hhasnWOjqTfLs-12" value="" style="shape=module;jettyWidth=8;jettyHeight=4;" parent="s4dvAF2hhasnWOjqTfLs-11" vertex="1">
          <mxGeometry x="1" width="20" height="20" relative="1" as="geometry">
            <mxPoint x="-27" y="7" as="offset" />
          </mxGeometry>
        </mxCell>
        <mxCell id="s4dvAF2hhasnWOjqTfLs-13" value="«component»&lt;br&gt;&lt;b&gt;System Administration&lt;/b&gt;" style="html=1;dropTarget=0;whiteSpace=wrap;" parent="1" vertex="1">
          <mxGeometry x="310" y="450" width="180" height="90" as="geometry" />
        </mxCell>
        <mxCell id="s4dvAF2hhasnWOjqTfLs-14" value="" style="shape=module;jettyWidth=8;jettyHeight=4;" parent="s4dvAF2hhasnWOjqTfLs-13" vertex="1">
          <mxGeometry x="1" width="20" height="20" relative="1" as="geometry">
            <mxPoint x="-27" y="7" as="offset" />
          </mxGeometry>
        </mxCell>
        <mxCell id="s4dvAF2hhasnWOjqTfLs-15" value="«component»&lt;br&gt;&lt;b&gt;Database&lt;/b&gt;" style="html=1;dropTarget=0;whiteSpace=wrap;" parent="1" vertex="1">
          <mxGeometry x="760" y="480" width="180" height="90" as="geometry" />
        </mxCell>
        <mxCell id="s4dvAF2hhasnWOjqTfLs-16" value="" style="shape=module;jettyWidth=8;jettyHeight=4;" parent="s4dvAF2hhasnWOjqTfLs-15" vertex="1">
          <mxGeometry x="1" width="20" height="20" relative="1" as="geometry">
            <mxPoint x="-27" y="7" as="offset" />
          </mxGeometry>
        </mxCell>
        <mxCell id="s4dvAF2hhasnWOjqTfLs-17" value="«component»&lt;br&gt;&lt;b&gt;Hospital&lt;/b&gt;" style="html=1;dropTarget=0;whiteSpace=wrap;" parent="1" vertex="1">
          <mxGeometry x="750" y="340" width="180" height="90" as="geometry" />
        </mxCell>
        <mxCell id="s4dvAF2hhasnWOjqTfLs-18" value="" style="shape=module;jettyWidth=8;jettyHeight=4;" parent="s4dvAF2hhasnWOjqTfLs-17" vertex="1">
          <mxGeometry x="1" width="20" height="20" relative="1" as="geometry">
            <mxPoint x="-27" y="7" as="offset" />
          </mxGeometry>
        </mxCell>
        <mxCell id="UY5SjsDUNRTu9xXyU0Cg-1" value="" style="rounded=0;orthogonalLoop=1;jettySize=auto;html=1;endArrow=halfCircle;endFill=0;endSize=6;strokeWidth=1;sketch=0;exitX=1;exitY=0.5;exitDx=0;exitDy=0;" edge="1" target="UY5SjsDUNRTu9xXyU0Cg-3" parent="1" source="s4dvAF2hhasnWOjqTfLs-1">
          <mxGeometry relative="1" as="geometry">
            <mxPoint x="240" y="275" as="sourcePoint" />
          </mxGeometry>
        </mxCell>
        <mxCell id="UY5SjsDUNRTu9xXyU0Cg-2" value="" style="rounded=0;orthogonalLoop=1;jettySize=auto;html=1;endArrow=oval;endFill=0;sketch=0;sourcePerimeterSpacing=0;targetPerimeterSpacing=0;endSize=10;exitX=0;exitY=0.5;exitDx=0;exitDy=0;" edge="1" target="UY5SjsDUNRTu9xXyU0Cg-3" parent="1" source="s4dvAF2hhasnWOjqTfLs-3">
          <mxGeometry relative="1" as="geometry">
            <mxPoint x="200" y="275" as="sourcePoint" />
          </mxGeometry>
        </mxCell>
        <mxCell id="UY5SjsDUNRTu9xXyU0Cg-3" value="" style="ellipse;whiteSpace=wrap;html=1;align=center;aspect=fixed;fillColor=none;strokeColor=none;resizable=0;perimeter=centerPerimeter;rotatable=0;allowArrows=0;points=[];outlineConnect=1;" vertex="1" parent="1">
          <mxGeometry x="150" y="180" width="10" height="10" as="geometry" />
        </mxCell>
        <mxCell id="UY5SjsDUNRTu9xXyU0Cg-5" value="" style="rounded=0;orthogonalLoop=1;jettySize=auto;html=1;endArrow=halfCircle;endFill=0;endSize=6;strokeWidth=1;sketch=0;exitX=1;exitY=0.5;exitDx=0;exitDy=0;" edge="1" target="UY5SjsDUNRTu9xXyU0Cg-7" parent="1" source="s4dvAF2hhasnWOjqTfLs-1">
          <mxGeometry relative="1" as="geometry">
            <mxPoint x="230" y="275" as="sourcePoint" />
          </mxGeometry>
        </mxCell>
        <mxCell id="UY5SjsDUNRTu9xXyU0Cg-6" value="" style="rounded=0;orthogonalLoop=1;jettySize=auto;html=1;endArrow=oval;endFill=0;sketch=0;sourcePerimeterSpacing=0;targetPerimeterSpacing=0;endSize=10;exitX=0;exitY=0.5;exitDx=0;exitDy=0;" edge="1" target="UY5SjsDUNRTu9xXyU0Cg-7" parent="1" source="s4dvAF2hhasnWOjqTfLs-5">
          <mxGeometry relative="1" as="geometry">
            <mxPoint x="190" y="275" as="sourcePoint" />
          </mxGeometry>
        </mxCell>
        <mxCell id="UY5SjsDUNRTu9xXyU0Cg-7" value="" style="ellipse;whiteSpace=wrap;html=1;align=center;aspect=fixed;fillColor=none;strokeColor=none;resizable=0;perimeter=centerPerimeter;rotatable=0;allowArrows=0;points=[];outlineConnect=1;" vertex="1" parent="1">
          <mxGeometry x="205" y="270" width="10" height="10" as="geometry" />
        </mxCell>
        <mxCell id="UY5SjsDUNRTu9xXyU0Cg-8" value="" style="rounded=0;orthogonalLoop=1;jettySize=auto;html=1;endArrow=halfCircle;endFill=0;endSize=6;strokeWidth=1;sketch=0;" edge="1" target="UY5SjsDUNRTu9xXyU0Cg-10" parent="1">
          <mxGeometry relative="1" as="geometry">
            <mxPoint x="90" y="300" as="sourcePoint" />
          </mxGeometry>
        </mxCell>
        <mxCell id="UY5SjsDUNRTu9xXyU0Cg-9" value="" style="rounded=0;orthogonalLoop=1;jettySize=auto;html=1;endArrow=oval;endFill=0;sketch=0;sourcePerimeterSpacing=0;targetPerimeterSpacing=0;endSize=10;exitX=0;exitY=0.6;exitDx=0;exitDy=0;exitPerimeter=0;" edge="1" target="UY5SjsDUNRTu9xXyU0Cg-10" parent="1" source="s4dvAF2hhasnWOjqTfLs-11">
          <mxGeometry relative="1" as="geometry">
            <mxPoint x="190" y="385" as="sourcePoint" />
          </mxGeometry>
        </mxCell>
        <mxCell id="UY5SjsDUNRTu9xXyU0Cg-10" value="" style="ellipse;whiteSpace=wrap;html=1;align=center;aspect=fixed;fillColor=none;strokeColor=none;resizable=0;perimeter=centerPerimeter;rotatable=0;allowArrows=0;points=[];outlineConnect=1;" vertex="1" parent="1">
          <mxGeometry x="205" y="380" width="10" height="10" as="geometry" />
        </mxCell>
        <mxCell id="UY5SjsDUNRTu9xXyU0Cg-11" value="" style="rounded=0;orthogonalLoop=1;jettySize=auto;html=1;endArrow=halfCircle;endFill=0;endSize=6;strokeWidth=1;sketch=0;" edge="1" target="UY5SjsDUNRTu9xXyU0Cg-13" parent="1">
          <mxGeometry relative="1" as="geometry">
            <mxPoint x="90" y="300" as="sourcePoint" />
          </mxGeometry>
        </mxCell>
        <mxCell id="UY5SjsDUNRTu9xXyU0Cg-12" value="" style="rounded=0;orthogonalLoop=1;jettySize=auto;html=1;endArrow=oval;endFill=0;sketch=0;sourcePerimeterSpacing=0;targetPerimeterSpacing=0;endSize=10;exitX=0;exitY=0.5;exitDx=0;exitDy=0;" edge="1" target="UY5SjsDUNRTu9xXyU0Cg-13" parent="1" source="s4dvAF2hhasnWOjqTfLs-13">
          <mxGeometry relative="1" as="geometry">
            <mxPoint x="160" y="445" as="sourcePoint" />
          </mxGeometry>
        </mxCell>
        <mxCell id="UY5SjsDUNRTu9xXyU0Cg-13" value="" style="ellipse;whiteSpace=wrap;html=1;align=center;aspect=fixed;fillColor=none;strokeColor=none;resizable=0;perimeter=centerPerimeter;rotatable=0;allowArrows=0;points=[];outlineConnect=1;" vertex="1" parent="1">
          <mxGeometry x="175" y="440" width="10" height="10" as="geometry" />
        </mxCell>
        <mxCell id="UY5SjsDUNRTu9xXyU0Cg-14" value="" style="rounded=0;orthogonalLoop=1;jettySize=auto;html=1;endArrow=halfCircle;endFill=0;endSize=6;strokeWidth=1;sketch=0;exitX=1;exitY=0.5;exitDx=0;exitDy=0;" edge="1" target="UY5SjsDUNRTu9xXyU0Cg-16" parent="1" source="s4dvAF2hhasnWOjqTfLs-5">
          <mxGeometry relative="1" as="geometry">
            <mxPoint x="650" y="245" as="sourcePoint" />
          </mxGeometry>
        </mxCell>
        <mxCell id="UY5SjsDUNRTu9xXyU0Cg-15" value="" style="rounded=0;orthogonalLoop=1;jettySize=auto;html=1;endArrow=oval;endFill=0;sketch=0;sourcePerimeterSpacing=0;targetPerimeterSpacing=0;endSize=10;exitX=0.011;exitY=0.422;exitDx=0;exitDy=0;exitPerimeter=0;" edge="1" target="UY5SjsDUNRTu9xXyU0Cg-16" parent="1" source="s4dvAF2hhasnWOjqTfLs-7">
          <mxGeometry relative="1" as="geometry">
            <mxPoint x="610" y="245" as="sourcePoint" />
          </mxGeometry>
        </mxCell>
        <mxCell id="UY5SjsDUNRTu9xXyU0Cg-16" value="" style="ellipse;whiteSpace=wrap;html=1;align=center;aspect=fixed;fillColor=none;strokeColor=none;resizable=0;perimeter=centerPerimeter;rotatable=0;allowArrows=0;points=[];outlineConnect=1;" vertex="1" parent="1">
          <mxGeometry x="625" y="240" width="10" height="10" as="geometry" />
        </mxCell>
        <mxCell id="UY5SjsDUNRTu9xXyU0Cg-17" value="" style="rounded=0;orthogonalLoop=1;jettySize=auto;html=1;endArrow=halfCircle;endFill=0;endSize=6;strokeWidth=1;sketch=0;exitX=1;exitY=0.5;exitDx=0;exitDy=0;" edge="1" target="UY5SjsDUNRTu9xXyU0Cg-19" parent="1" source="s4dvAF2hhasnWOjqTfLs-5">
          <mxGeometry relative="1" as="geometry">
            <mxPoint x="635" y="355" as="sourcePoint" />
          </mxGeometry>
        </mxCell>
        <mxCell id="UY5SjsDUNRTu9xXyU0Cg-18" value="" style="rounded=0;orthogonalLoop=1;jettySize=auto;html=1;endArrow=oval;endFill=0;sketch=0;sourcePerimeterSpacing=0;targetPerimeterSpacing=0;endSize=10;exitX=0;exitY=0.5;exitDx=0;exitDy=0;" edge="1" target="UY5SjsDUNRTu9xXyU0Cg-19" parent="1" source="s4dvAF2hhasnWOjqTfLs-9">
          <mxGeometry relative="1" as="geometry">
            <mxPoint x="595" y="355" as="sourcePoint" />
          </mxGeometry>
        </mxCell>
        <mxCell id="UY5SjsDUNRTu9xXyU0Cg-19" value="" style="ellipse;whiteSpace=wrap;html=1;align=center;aspect=fixed;fillColor=none;strokeColor=none;resizable=0;perimeter=centerPerimeter;rotatable=0;allowArrows=0;points=[];outlineConnect=1;" vertex="1" parent="1">
          <mxGeometry x="610" y="350" width="10" height="10" as="geometry" />
        </mxCell>
        <mxCell id="UY5SjsDUNRTu9xXyU0Cg-20" value="" style="rounded=0;orthogonalLoop=1;jettySize=auto;html=1;endArrow=halfCircle;endFill=0;endSize=6;strokeWidth=1;sketch=0;exitX=1.017;exitY=0.633;exitDx=0;exitDy=0;exitPerimeter=0;" edge="1" target="UY5SjsDUNRTu9xXyU0Cg-22" parent="1" source="s4dvAF2hhasnWOjqTfLs-13">
          <mxGeometry relative="1" as="geometry">
            <mxPoint x="620" y="515" as="sourcePoint" />
          </mxGeometry>
        </mxCell>
        <mxCell id="UY5SjsDUNRTu9xXyU0Cg-21" value="" style="rounded=0;orthogonalLoop=1;jettySize=auto;html=1;endArrow=oval;endFill=0;sketch=0;sourcePerimeterSpacing=0;targetPerimeterSpacing=0;endSize=10;exitX=-0.017;exitY=0.589;exitDx=0;exitDy=0;exitPerimeter=0;" edge="1" target="UY5SjsDUNRTu9xXyU0Cg-22" parent="1" source="s4dvAF2hhasnWOjqTfLs-15">
          <mxGeometry relative="1" as="geometry">
            <mxPoint x="580" y="515" as="sourcePoint" />
          </mxGeometry>
        </mxCell>
        <mxCell id="UY5SjsDUNRTu9xXyU0Cg-22" value="" style="ellipse;whiteSpace=wrap;html=1;align=center;aspect=fixed;fillColor=none;strokeColor=none;resizable=0;perimeter=centerPerimeter;rotatable=0;allowArrows=0;points=[];outlineConnect=1;" vertex="1" parent="1">
          <mxGeometry x="595" y="510" width="10" height="10" as="geometry" />
        </mxCell>
        <mxCell id="UY5SjsDUNRTu9xXyU0Cg-23" value="" style="rounded=0;orthogonalLoop=1;jettySize=auto;html=1;endArrow=halfCircle;endFill=0;endSize=6;strokeWidth=1;sketch=0;exitX=0.989;exitY=0.622;exitDx=0;exitDy=0;exitPerimeter=0;" edge="1" target="UY5SjsDUNRTu9xXyU0Cg-25" parent="1" source="s4dvAF2hhasnWOjqTfLs-11">
          <mxGeometry relative="1" as="geometry">
            <mxPoint x="690" y="425" as="sourcePoint" />
          </mxGeometry>
        </mxCell>
        <mxCell id="UY5SjsDUNRTu9xXyU0Cg-24" value="" style="rounded=0;orthogonalLoop=1;jettySize=auto;html=1;endArrow=oval;endFill=0;sketch=0;sourcePerimeterSpacing=0;targetPerimeterSpacing=0;endSize=10;exitX=0;exitY=0.5;exitDx=0;exitDy=0;" edge="1" target="UY5SjsDUNRTu9xXyU0Cg-25" parent="1" source="s4dvAF2hhasnWOjqTfLs-17">
          <mxGeometry relative="1" as="geometry">
            <mxPoint x="650" y="425" as="sourcePoint" />
          </mxGeometry>
        </mxCell>
        <mxCell id="UY5SjsDUNRTu9xXyU0Cg-25" value="" style="ellipse;whiteSpace=wrap;html=1;align=center;aspect=fixed;fillColor=none;strokeColor=none;resizable=0;perimeter=centerPerimeter;rotatable=0;allowArrows=0;points=[];outlineConnect=1;" vertex="1" parent="1">
          <mxGeometry x="665" y="420" width="10" height="10" as="geometry" />
        </mxCell>
      </root>
    </mxGraphModel>
  </diagram>
</mxfile>
